<?xml version="1.0" standalone="no"?>
<!DOCTYPE svg PUBLIC "-//W3C//DTD SVG 20010904//EN"
 "http://www.w3.org/TR/2001/REC-SVG-20010904/DTD/svg10.dtd">
<svg version="1.0" xmlns="http://www.w3.org/2000/svg"
 width="211.000000pt" height="242.000000pt" viewBox="0 0 211.000000 242.000000"
 preserveAspectRatio="xMidYMid meet">

<g transform="translate(0.000000,242.000000) scale(0.100000,-0.100000)"
fill="#000000" stroke="none">
<path d="M1109 2248 c0 -2 -10 -39 -22 -83 l-22 -80 -205 -5 -205 -5 -3 -112
c-1 -62 -4 -113 -6 -113 -15 0 -352 -93 -358 -99 -4 -3 4 -47 17 -96 14 -50
23 -95 21 -101 -2 -6 -22 -14 -45 -17 -52 -7 -96 -39 -121 -87 -19 -38 -20
-61 -20 -572 0 -514 1 -535 21 -578 27 -60 74 -107 134 -136 l50 -24 711 0
c796 0 768 -2 845 72 22 22 51 61 62 86 21 45 22 59 22 422 0 361 -1 377 -21
421 -25 53 -80 110 -132 136 -35 17 -86 18 -788 23 -722 5 -753 6 -773 24 -25
23 -27 53 -5 84 12 17 25 22 58 22 41 0 43 -1 52 -37 8 -35 12 -38 47 -41 20
-2 37 0 37 3 0 3 -14 58 -31 121 -29 111 -30 116 -12 130 10 7 21 14 24 14 13
0 41 72 36 91 -3 10 -4 19 -2 19 2 0 88 23 191 51 171 46 188 49 197 34 19
-35 48 -55 87 -61 46 -7 37 14 108 -254 l39 -145 91 -3 c91 -3 92 -2 92 21 0
41 -27 116 -54 152 -15 19 -46 46 -70 60 -38 22 -45 32 -59 83 -9 31 -30 109
-47 173 l-32 117 -126 -34 c-167 -45 -186 -48 -136 -25 44 20 74 54 74 83 0
17 15 18 199 18 l199 0 6 -25 c8 -30 47 -68 79 -75 22 -6 22 -8 25 -278 l2
-272 84 0 84 0 13 33 c8 17 14 64 14 102 0 58 -5 78 -28 117 -15 26 -41 56
-57 68 l-30 21 0 195 0 194 -90 0 c-49 0 -90 2 -90 5 0 3 7 16 15 29 l16 23
87 -23 c48 -13 133 -36 190 -51 l102 -27 0 -35 c1 -38 21 -70 56 -89 21 -11
20 -16 -52 -284 -41 -150 -74 -274 -74 -275 0 -2 18 -3 39 -3 38 0 40 1 49 43
5 23 47 181 92 350 45 169 80 310 77 313 -6 6 -1 5 -405 113 -284 76 -321 85
-323 79z m-471 -1058 l342 0 0 -34 c0 -31 -4 -36 -37 -46 -129 -41 -197 -163
-163 -291 20 -75 77 -120 201 -158 146 -45 179 -61 193 -90 58 -121 -149 -149
-310 -42 l-30 20 -37 -68 c-29 -53 -34 -71 -25 -79 24 -18 93 -50 151 -68 54
-17 57 -19 57 -51 l0 -33 -309 0 c-303 0 -309 0 -341 22 -18 13 -43 36 -54 51
-20 28 -21 40 -24 454 l-3 425 23 -6 c13 -3 177 -6 366 -6z m1151 -20 c64 -32
81 -71 81 -183 l0 -96 -62 -3 -63 -3 0 -165 0 -165 60 -5 60 -5 3 -94 c3 -85
1 -97 -22 -131 -45 -69 -57 -71 -398 -68 l-303 3 -3 27 c-3 25 3 30 60 56 109
49 155 125 146 243 -8 109 -57 152 -238 209 -131 41 -170 67 -170 110 0 92
161 105 295 25 l55 -33 36 64 c19 35 33 68 29 74 -9 15 -80 50 -150 75 -59 21
-74 38 -61 71 4 12 53 14 306 14 279 0 304 -1 339 -20z"/>
<path d="M758 1410 c-28 -8 -98 -48 -98 -56 0 -2 75 -4 167 -4 164 0 166 0
149 19 -37 41 -149 62 -218 41z"/>
</g>
</svg>
